<?xml version="1.0" standalone="no"?>
<!DOCTYPE svg PUBLIC "-//W3C//DTD SVG 20010904//EN"
 "http://www.w3.org/TR/2001/REC-SVG-20010904/DTD/svg10.dtd">
<svg version="1.0" xmlns="http://www.w3.org/2000/svg"
 width="192.000000pt" height="192.000000pt" viewBox="0 0 192.000000 192.000000"
 preserveAspectRatio="xMidYMid meet">
<metadata>
Created by potrace 1.14, written by Peter Selinger 2001-2017
</metadata>
<g transform="translate(0.000000,192.000000) scale(0.100000,-0.100000)"
fill="#000000" stroke="none">
<path d="M1360 1580 c-120 -41 -303 -202 -409 -360 -67 -101 -85 -145 -78
-199 13 -119 104 -174 432 -263 91 -24 149 -45 152 -54 1 -5 -11 -18 -27 -29
-106 -75 -200 -182 -200 -231 0 -50 95 -123 182 -139 74 -14 147 34 195 129
62 122 64 178 8 244 -55 63 -125 94 -400 178 -98 30 -155 72 -155 116 0 57
200 301 321 392 75 57 118 70 164 50 l34 -14 -55 -77 c-70 -97 -98 -152 -118
-230 -26 -101 -20 -140 23 -145 20 -3 25 4 36 39 31 102 119 196 298 318 47
33 89 68 93 78 7 22 -15 56 -80 125 l-51 53 -46 -50 -47 -51 -88 63 c-49 35
-99 66 -110 69 -12 3 -45 -2 -74 -12z m95 -987 c-29 -68 -135 -192 -135 -156
0 24 62 112 118 169 31 33 35 30 17 -13z"/>
<path d="M783 1552 c-15 -22 -33 -48 -39 -58 -11 -18 -13 -18 -60 4 -76 37
-142 40 -206 9 -104 -51 -208 -174 -298 -352 -113 -223 -163 -476 -117 -588
43 -103 230 -207 373 -207 68 0 134 35 215 112 149 144 233 275 187 291 -26 8
-44 -6 -83 -65 -52 -81 -179 -210 -230 -233 -203 -94 -264 194 -124 591 76
215 187 374 262 374 15 0 27 -4 27 -9 0 -4 -18 -46 -39 -92 -60 -129 -75 -226
-46 -295 12 -30 19 -35 42 -32 24 3 30 11 48 64 30 88 61 135 179 274 58 68
106 128 106 133 0 15 -49 54 -110 86 l-59 32 -28 -39z"/>
<path d="M948 620 c-46 -13 -85 -47 -106 -94 -23 -47 -22 -62 1 -117 18 -43
45 -67 94 -84 37 -13 38 -15 41 -64 2 -28 7 -51 12 -51 22 0 77 35 99 62 43
54 62 163 41 239 -21 77 -109 129 -182 109z"/>
</g>
</svg>
